# Blender 3.3.0
# www.blender.org
mtllib strada.mtl
o Strada
v 0.000000 -4.000000 -7.500000
v 0.000000 -2.000000 -7.500000
v 1.463177 -4.000000 -7.355889
v 1.463177 -2.000000 -7.355889
v 2.870126 -4.000000 -6.929096
v 2.870126 -2.000000 -6.929096
v 4.166777 -4.000000 -6.236022
v 4.166777 -2.000000 -6.236022
v 5.303301 -4.000000 -5.303301
v 5.303301 -2.000000 -5.303301
v 6.236022 -4.000000 -4.166777
v 6.236022 -2.000000 -4.166777
v 6.929096 -4.000000 -2.870126
v 6.929096 -2.000000 -2.870126
v 7.355889 -4.000000 -1.463177
v 7.355889 -2.000000 -1.463177
v 7.500000 -4.000000 0.000000
v 7.500000 -2.000000 0.000000
v 7.355889 -4.000000 1.463177
v 7.355889 -2.000000 1.463177
v 6.929096 -4.000000 2.870126
v 6.929096 -2.000000 2.870126
v 6.236022 -4.000000 4.166777
v 6.236022 -2.000000 4.166777
v 5.303301 -4.000000 5.303301
v 5.303301 -2.000000 5.303301
v 4.166777 -4.000000 6.236022
v 4.166777 -2.000000 6.236022
v 2.870126 -4.000000 6.929096
v 2.870126 -2.000000 6.929096
v 1.463177 -4.000000 7.355889
v 1.463177 -2.000000 7.355889
v 0.000000 -4.000000 7.500000
v 0.000000 -2.000000 7.500000
v -1.463177 -4.000000 7.355889
v -1.463177 -2.000000 7.355889
v -2.870126 -4.000000 6.929096
v -2.870126 -2.000000 6.929096
v -4.166777 -4.000000 6.236022
v -4.166777 -2.000000 6.236022
v -5.303301 -4.000000 5.303301
v -5.303301 -2.000000 5.303301
v -6.236022 -4.000000 4.166777
v -6.236022 -2.000000 4.166777
v -6.929096 -4.000000 2.870126
v -6.929096 -2.000000 2.870126
v -7.355889 -4.000000 1.463177
v -7.355889 -2.000000 1.463177
v -7.500000 -4.000000 0.000000
v -7.500000 -2.000000 0.000000
v -7.355889 -4.000000 -1.463177
v -7.355889 -2.000000 -1.463177
v -6.929096 -4.000000 -2.870126
v -6.929096 -2.000000 -2.870126
v -6.236022 -4.000000 -4.166777
v -6.236022 -2.000000 -4.166777
v -5.303301 -4.000000 -5.303301
v -5.303301 -2.000000 -5.303301
v -4.166777 -4.000000 -6.236022
v -4.166777 -2.000000 -6.236022
v -2.870126 -4.000000 -6.929096
v -2.870126 -2.000000 -6.929096
v -1.463177 -4.000000 -7.355889
v -1.463177 -2.000000 -7.355889
v 0.000000 -4.000000 -4.500000
v 0.000000 -2.000000 -4.500000
v 0.877906 -4.000000 -4.413534
v 0.877906 -2.000000 -4.413534
v 1.722076 -4.000000 -4.157457
v 1.722076 -2.000000 -4.157457
v 2.500066 -4.000000 -3.741613
v 2.500066 -2.000000 -3.741613
v 3.181980 -4.000000 -3.181980
v 3.181980 -2.000000 -3.181980
v 3.741613 -4.000000 -2.500066
v 3.741613 -2.000000 -2.500066
v 4.157457 -4.000000 -1.722076
v 4.157457 -2.000000 -1.722076
v 4.413534 -4.000000 -0.877906
v 4.413534 -2.000000 -0.877906
v 4.500000 -4.000000 0.000000
v 4.500000 -2.000000 0.000000
v 4.413534 -4.000000 0.877906
v 4.413534 -2.000000 0.877906
v 4.157457 -4.000000 1.722076
v 4.157457 -2.000000 1.722076
v 3.741613 -4.000000 2.500066
v 3.741613 -2.000000 2.500066
v 3.181980 -4.000000 3.181980
v 3.181980 -2.000000 3.181980
v 2.500066 -4.000000 3.741613
v 2.500066 -2.000000 3.741613
v 1.722076 -4.000000 4.157457
v 1.722076 -2.000000 4.157457
v 0.877906 -4.000000 4.413534
v 0.877906 -2.000000 4.413534
v 0.000000 -4.000000 4.500000
v 0.000000 -2.000000 4.500000
v -0.877906 -4.000000 4.413534
v -0.877906 -2.000000 4.413534
v -1.722076 -4.000000 4.157457
v -1.722076 -2.000000 4.157457
v -2.500066 -4.000000 3.741613
v -2.500066 -2.000000 3.741613
v -3.181980 -4.000000 3.181980
v -3.181980 -2.000000 3.181980
v -3.741613 -4.000000 2.500066
v -3.741613 -2.000000 2.500066
v -4.157457 -4.000000 1.722076
v -4.157457 -2.000000 1.722076
v -4.413534 -4.000000 0.877906
v -4.413534 -2.000000 0.877906
v -4.500000 -4.000000 0.000000
v -4.500000 -2.000000 0.000000
v -4.413534 -4.000000 -0.877906
v -4.413534 -2.000000 -0.877906
v -4.157457 -4.000000 -1.722076
v -4.157457 -2.000000 -1.722076
v -3.741613 -4.000000 -2.500066
v -3.741613 -2.000000 -2.500066
v -3.181980 -4.000000 -3.181980
v -3.181980 -2.000000 -3.181980
v -2.500066 -4.000000 -3.741613
v -2.500066 -2.000000 -3.741613
v -1.722076 -4.000000 -4.157457
v -1.722076 -2.000000 -4.157457
v -0.877906 -4.000000 -4.413534
v -0.877906 -2.000000 -4.413534
vn 0.0980 -0.0000 -0.9952
vn 0.2903 -0.0000 -0.9569
vn 0.4714 -0.0000 -0.8819
vn 0.6344 -0.0000 -0.7730
vn 0.7730 -0.0000 -0.6344
vn 0.8819 -0.0000 -0.4714
vn 0.9569 -0.0000 -0.2903
vn 0.9952 -0.0000 -0.0980
vn 0.9952 -0.0000 0.0980
vn 0.9569 -0.0000 0.2903
vn 0.8819 -0.0000 0.4714
vn 0.7730 -0.0000 0.6344
vn 0.6344 -0.0000 0.7730
vn 0.4714 -0.0000 0.8819
vn 0.2903 -0.0000 0.9569
vn 0.0980 -0.0000 0.9952
vn -0.0980 -0.0000 0.9952
vn -0.2903 -0.0000 0.9569
vn -0.4714 -0.0000 0.8819
vn -0.6344 -0.0000 0.7730
vn -0.7730 -0.0000 0.6344
vn -0.8819 -0.0000 0.4714
vn -0.9569 -0.0000 0.2903
vn -0.9952 -0.0000 0.0980
vn -0.9952 -0.0000 -0.0980
vn -0.9569 -0.0000 -0.2903
vn -0.8819 -0.0000 -0.4714
vn -0.7730 -0.0000 -0.6344
vn -0.6344 -0.0000 -0.7730
vn -0.4714 -0.0000 -0.8819
vn -0.2903 -0.0000 -0.9569
vn -0.0980 -0.0000 -0.9952
vn -0.0000 -1.0000 -0.0000
vn -0.0000 1.0000 -0.0000
vt 1.000000 0.000000
vt 0.000000 0.000000
vt 1.000000 1.000000
vt 0.000000 1.000000
vt 1.000000 0.492457
vt 1.000000 0.000000
vt 0.968750 0.000000
vt 0.968750 1.000000
vt 1.000000 0.000000
vt 1.000000 0.492457
vt 0.937500 0.000000
vt 0.937500 1.000000
vt 1.000000 0.000000
vt 1.000000 0.492457
vt 0.906250 0.000000
vt 0.906250 1.000000
vt 1.000000 0.000000
vt 1.000000 0.492457
vt 0.875000 0.000000
vt 0.875000 1.000000
vt 1.000000 0.000000
vt 0.000000 0.000000
vt 0.843750 0.000000
vt 0.843750 1.000000
vt 0.000000 0.492457
vt 0.000000 0.000000
vt 0.812500 0.000000
vt 0.812500 1.000000
vt 0.000000 0.492456
vt 0.000000 0.000000
vt 0.781250 0.000000
vt 0.781250 1.000000
vt 0.000000 0.492457
vt 1.000000 0.492457
vt 0.750000 0.000000
vt 0.750000 1.000000
vt 1.000000 0.000000
vt 1.000000 0.492457
vt 0.718750 0.000000
vt 0.718750 1.000000
vt 1.000000 0.000000
vt 1.000000 0.492457
vt 0.687500 0.000000
vt 0.687500 1.000000
vt 1.000000 0.000000
vt 0.000000 0.000000
vt 0.656250 0.000000
vt 0.656250 1.000000
vt 0.000000 0.492457
vt 1.000000 0.492457
vt 0.625000 0.000000
vt 0.625000 1.000000
vt 1.000000 0.000000
vt 1.000000 0.492457
vt 0.593750 0.000000
vt 0.593750 1.000000
vt 1.000000 0.000000
vt 1.000000 0.492456
vt 0.562500 0.000000
vt 0.562500 1.000000
vt 1.000000 0.000000
vt 0.000000 0.000000
vt 0.531250 0.000000
vt 0.531250 1.000000
vt 0.000000 0.492457
vt 1.000000 0.492457
vt 0.500000 0.000000
vt 0.500000 1.000000
vt 1.000000 0.000000
vt 1.000000 0.492457
vt 0.468750 0.000000
vt 0.468750 1.000000
vt 1.000000 0.000000
vt 1.000000 0.492457
vt 0.437500 0.000000
vt 0.437500 1.000000
vt 1.000000 0.000000
vt 1.000000 0.492457
vt 0.406250 0.000000
vt 0.406250 1.000000
vt 1.000000 0.000000
vt 1.000000 0.492457
vt 0.375000 0.000000
vt 0.375000 1.000000
vt 1.000000 0.000000
vt 0.000000 0.000000
vt 0.343750 0.000000
vt 0.343750 1.000000
vt 0.000000 0.492457
vt 0.000000 0.000000
vt 0.312500 0.000000
vt 0.312500 1.000000
vt 0.000000 0.492457
vt 0.000000 0.000000
vt 0.281250 0.000000
vt 0.281250 1.000000
vt 0.000000 0.492457
vt 1.000000 0.492457
vt 0.250000 0.000000
vt 0.250000 1.000000
vt 1.000000 0.000000
vt 1.000000 0.492457
vt 0.218750 0.000000
vt 0.218750 1.000000
vt 1.000000 0.000000
vt 1.000000 0.492457
vt 0.187500 0.000000
vt 0.187500 1.000000
vt 1.000000 0.000000
vt 0.000000 0.000000
vt 0.156250 0.000000
vt 0.156250 1.000000
vt 0.000000 0.492457
vt 1.000000 0.492457
vt 0.125000 0.000000
vt 0.125000 1.000000
vt 1.000000 0.000000
vt 1.000000 0.492457
vt 0.093750 0.000000
vt 0.093750 1.000000
vt 1.000000 0.000000
vt 1.000000 0.492457
vt 0.062500 0.000000
vt 0.062500 1.000000
vt 1.000000 0.000000
vt 0.000000 0.000000
vt 0.031250 0.000000
vt 0.031250 1.000000
vt 0.000000 0.492457
vt 1.000000 0.492457
vt 1.000000 0.000000
vt 0.000000 0.000000
vt 1.000000 1.000000
vt 0.000000 1.000000
vt 0.000000 0.393965
vt 0.000000 0.098492
vt 0.968750 0.000000
vt 0.968750 1.000000
vt 0.000000 0.098491
vt 0.000000 0.393966
vt 0.937500 0.000000
vt 0.937500 1.000000
vt 0.000000 0.098491
vt 0.000000 0.393966
vt 0.906250 0.000000
vt 0.906250 1.000000
vt 0.000000 0.098492
vt 0.000000 0.393965
vt 0.875000 0.000000
vt 0.875000 1.000000
vt 0.000000 0.098491
vt 1.000000 0.098491
vt 0.843750 0.000000
vt 0.843750 1.000000
vt 1.000000 0.393965
vt 1.000000 0.098491
vt 0.812500 0.000000
vt 0.812500 1.000000
vt 1.000000 0.393965
vt 1.000000 0.098491
vt 0.781250 0.000000
vt 0.781250 1.000000
vt 1.000000 0.393965
vt 0.000000 0.393966
vt 0.750000 0.000000
vt 0.750000 1.000000
vt 0.000000 0.098492
vt 0.000000 0.393965
vt 0.718750 0.000000
vt 0.718750 1.000000
vt 0.000000 0.098491
vt 0.000000 0.393966
vt 0.687500 0.000000
vt 0.687500 1.000000
vt 0.000000 0.098492
vt 1.000000 0.098491
vt 0.656250 0.000000
vt 0.656250 1.000000
vt 1.000000 0.393965
vt 0.000000 0.393965
vt 0.625000 0.000000
vt 0.625000 1.000000
vt 0.000000 0.098491
vt 0.000000 0.393965
vt 0.593750 0.000000
vt 0.593750 1.000000
vt 0.000000 0.098491
vt 0.000000 0.393965
vt 0.562500 0.000000
vt 0.562500 1.000000
vt 0.000000 0.098491
vt 1.000000 0.098491
vt 0.531250 0.000000
vt 0.531250 1.000000
vt 1.000000 0.393966
vt 0.000000 0.393966
vt 0.500000 0.000000
vt 0.500000 1.000000
vt 0.000000 0.098492
vt 0.000000 0.393965
vt 0.468750 0.000000
vt 0.468750 1.000000
vt 0.000000 0.098491
vt 0.000000 0.393966
vt 0.437500 0.000000
vt 0.437500 1.000000
vt 0.000000 0.098491
vt 0.000000 0.393966
vt 0.406250 0.000000
vt 0.406250 1.000000
vt 0.000000 0.098491
vt 0.000000 0.393965
vt 0.375000 0.000000
vt 0.375000 1.000000
vt 0.000000 0.098491
vt 1.000000 0.098491
vt 0.343750 0.000000
vt 0.343750 1.000000
vt 1.000000 0.393965
vt 1.000000 0.098491
vt 0.312500 0.000000
vt 0.312500 1.000000
vt 1.000000 0.393965
vt 1.000000 0.098491
vt 0.281250 0.000000
vt 0.281250 1.000000
vt 1.000000 0.393965
vt 0.000000 0.393966
vt 0.250000 0.000000
vt 0.250000 1.000000
vt 0.000000 0.098492
vt 0.000000 0.393965
vt 0.218750 0.000000
vt 0.218750 1.000000
vt 0.000000 0.098491
vt 0.000000 0.393966
vt 0.187500 0.000000
vt 0.187500 1.000000
vt 0.000000 0.098492
vt 1.000000 0.098491
vt 0.156250 0.000000
vt 0.156250 1.000000
vt 1.000000 0.393965
vt 0.000000 0.393965
vt 0.125000 0.000000
vt 0.125000 1.000000
vt 0.000000 0.098491
vt 0.000000 0.393965
vt 0.093750 0.000000
vt 0.093750 1.000000
vt 0.000000 0.098491
vt 0.000000 0.393965
vt 0.062500 0.000000
vt 0.062500 1.000000
vt 0.000000 0.098491
vt 1.000000 0.098491
vt 0.031250 0.000000
vt 0.031250 1.000000
vt 1.000000 0.393965
vt 0.000000 0.393966
s 0
usemtl Material.001
f 1/1/1 2/3/1 4/8/1 3/7/1
f 3/7/2 4/8/2 6/12/2 5/11/2
f 5/11/3 6/12/3 8/16/3 7/15/3
f 7/15/4 8/16/4 10/20/4 9/19/4
f 9/19/5 10/20/5 12/24/5 11/23/5
f 11/23/6 12/24/6 14/28/6 13/27/6
f 13/27/7 14/28/7 16/32/7 15/31/7
f 15/31/8 16/32/8 18/36/8 17/35/8
f 17/35/9 18/36/9 20/40/9 19/39/9
f 19/39/10 20/40/10 22/44/10 21/43/10
f 21/43/11 22/44/11 24/48/11 23/47/11
f 23/47/12 24/48/12 26/52/12 25/51/12
f 25/51/13 26/52/13 28/56/13 27/55/13
f 27/55/14 28/56/14 30/60/14 29/59/14
f 29/59/15 30/60/15 32/64/15 31/63/15
f 31/63/16 32/64/16 34/68/16 33/67/16
f 33/67/17 34/68/17 36/72/17 35/71/17
f 35/71/18 36/72/18 38/76/18 37/75/18
f 37/75/19 38/76/19 40/80/19 39/79/19
f 39/79/20 40/80/20 42/84/20 41/83/20
f 41/83/21 42/84/21 44/88/21 43/87/21
f 43/87/22 44/88/22 46/92/22 45/91/22
f 45/91/23 46/92/23 48/96/23 47/95/23
f 47/95/24 48/96/24 50/100/24 49/99/24
f 49/99/25 50/100/25 52/104/25 51/103/25
f 51/103/26 52/104/26 54/108/26 53/107/26
f 53/107/27 54/108/27 56/112/27 55/111/27
f 55/111/28 56/112/28 58/116/28 57/115/28
f 57/115/29 58/116/29 60/120/29 59/119/29
f 59/119/30 60/120/30 62/124/30 61/123/30
f 61/123/31 62/124/31 64/128/31 63/127/31
f 63/127/32 64/128/32 2/4/32 1/2/32
f 65/131/17 67/137/17 68/138/17 66/133/17
f 67/137/18 69/141/18 70/142/18 68/138/18
f 69/141/19 71/145/19 72/146/19 70/142/19
f 71/145/20 73/149/20 74/150/20 72/146/20
f 73/149/21 75/153/21 76/154/21 74/150/21
f 75/153/22 77/157/22 78/158/22 76/154/22
f 77/157/23 79/161/23 80/162/23 78/158/23
f 79/161/24 81/165/24 82/166/24 80/162/24
f 81/165/25 83/169/25 84/170/25 82/166/25
f 83/169/26 85/173/26 86/174/26 84/170/26
f 85/173/27 87/177/27 88/178/27 86/174/27
f 87/177/28 89/181/28 90/182/28 88/178/28
f 89/181/29 91/185/29 92/186/29 90/182/29
f 91/185/30 93/189/30 94/190/30 92/186/30
f 93/189/31 95/193/31 96/194/31 94/190/31
f 95/193/32 97/197/32 98/198/32 96/194/32
f 97/197/1 99/201/1 100/202/1 98/198/1
f 99/201/2 101/205/2 102/206/2 100/202/2
f 101/205/3 103/209/3 104/210/3 102/206/3
f 103/209/4 105/213/4 106/214/4 104/210/4
f 105/213/5 107/217/5 108/218/5 106/214/5
f 107/217/6 109/221/6 110/222/6 108/218/6
f 109/221/7 111/225/7 112/226/7 110/222/7
f 111/225/8 113/229/8 114/230/8 112/226/8
f 113/229/9 115/233/9 116/234/9 114/230/9
f 115/233/10 117/237/10 118/238/10 116/234/10
f 117/237/11 119/241/11 120/242/11 118/238/11
f 119/241/12 121/245/12 122/246/12 120/242/12
f 121/245/13 123/249/13 124/250/13 122/246/13
f 123/249/14 125/253/14 126/254/14 124/250/14
f 125/253/15 127/257/15 128/258/15 126/254/15
f 127/257/16 65/132/16 66/134/16 128/258/16
f 1/1/33 3/7/33 67/137/33 65/131/33
f 3/7/33 5/11/33 69/141/33 67/137/33
f 5/11/33 7/15/33 71/145/33 69/141/33
f 7/15/33 9/19/33 73/149/33 71/145/33
f 9/19/33 11/23/33 75/153/33 73/149/33
f 11/23/33 13/27/33 77/157/33 75/153/33
f 13/27/33 15/31/33 79/161/33 77/157/33
f 15/31/33 17/35/33 81/165/33 79/161/33
f 17/35/33 19/39/33 83/169/33 81/165/33
f 19/39/33 21/43/33 85/173/33 83/169/33
f 21/43/33 23/47/33 87/177/33 85/173/33
f 23/47/33 25/51/33 89/181/33 87/177/33
f 25/51/33 27/55/33 91/185/33 89/181/33
f 27/55/33 29/59/33 93/189/33 91/185/33
f 29/59/33 31/63/33 95/193/33 93/189/33
f 31/63/33 33/67/33 97/197/33 95/193/33
f 33/67/33 35/71/33 99/201/33 97/197/33
f 35/71/33 37/75/33 101/205/33 99/201/33
f 37/75/33 39/79/33 103/209/33 101/205/33
f 39/79/33 41/83/33 105/213/33 103/209/33
f 41/83/33 43/87/33 107/217/33 105/213/33
f 43/87/33 45/91/33 109/221/33 107/217/33
f 45/91/33 47/95/33 111/225/33 109/221/33
f 47/95/33 49/99/33 113/229/33 111/225/33
f 49/99/33 51/103/33 115/233/33 113/229/33
f 51/103/33 53/107/33 117/237/33 115/233/33
f 53/107/33 55/111/33 119/241/33 117/237/33
f 55/111/33 57/115/33 121/245/33 119/241/33
f 57/115/33 59/119/33 123/249/33 121/245/33
f 59/119/33 61/123/33 125/253/33 123/249/33
f 61/123/33 63/127/33 127/257/33 125/253/33
f 63/127/33 1/2/33 65/132/33 127/257/33
usemtl Material.012
f 4/9/34 2/5/34 66/135/34 68/139/34
f 6/13/34 4/10/34 68/140/34 70/143/34
f 8/17/34 6/14/34 70/144/34 72/147/34
f 10/21/34 8/18/34 72/148/34 74/151/34
f 12/25/34 10/22/34 74/152/34 76/155/34
f 14/29/34 12/26/34 76/156/34 78/159/34
f 16/33/34 14/30/34 78/160/34 80/163/34
f 18/37/34 16/34/34 80/164/34 82/167/34
f 20/41/34 18/38/34 82/168/34 84/171/34
f 22/45/34 20/42/34 84/172/34 86/175/34
f 24/49/34 22/46/34 86/176/34 88/179/34
f 26/53/34 24/50/34 88/180/34 90/183/34
f 28/57/34 26/54/34 90/184/34 92/187/34
f 30/61/34 28/58/34 92/188/34 94/191/34
f 32/65/34 30/62/34 94/192/34 96/195/34
f 34/69/34 32/66/34 96/196/34 98/199/34
f 36/73/34 34/70/34 98/200/34 100/203/34
f 38/77/34 36/74/34 100/204/34 102/207/34
f 40/81/34 38/78/34 102/208/34 104/211/34
f 42/85/34 40/82/34 104/212/34 106/215/34
f 44/89/34 42/86/34 106/216/34 108/219/34
f 46/93/34 44/90/34 108/220/34 110/223/34
f 48/97/34 46/94/34 110/224/34 112/227/34
f 50/101/34 48/98/34 112/228/34 114/231/34
f 52/105/34 50/102/34 114/232/34 116/235/34
f 54/109/34 52/106/34 116/236/34 118/239/34
f 56/113/34 54/110/34 118/240/34 120/243/34
f 58/117/34 56/114/34 120/244/34 122/247/34
f 60/121/34 58/118/34 122/248/34 124/251/34
f 62/125/34 60/122/34 124/252/34 126/255/34
f 64/129/34 62/126/34 126/256/34 128/259/34
f 2/6/34 64/130/34 128/260/34 66/136/34
