# Blender 3.3.0
# www.blender.org
mtllib strada.mtl
o Plane.004
v 4.038364 -2.010000 -4.011563
v -7.011563 -2.010000 -4.011563
v 4.038364 -2.010000 4.011563
v -7.011563 -2.010000 4.011563
v -3.522270 0.362622 -3.572494
v -3.495061 0.273904 -3.736421
v -4.273134 0.597001 -3.983927
v -4.270846 0.435357 -4.341402
v -4.288568 0.403337 -4.434820
v -6.238706 -3.448119 0.432142
v -6.254055 -1.981039 0.719023
vn -0.0000 1.0000 -0.0000
vt 1.000000 1.000000
vt 0.000000 1.000000
vt 1.000000 0.000000
vt 0.000000 0.000000
s 0
usemtl Material.005
f 4/4/1 3/3/1 1/1/1 2/2/1
