# Blender 3.3.0
# www.blender.org
mtllib tree.mtl
o Icosphere
v 0.177024 6.345463 1.370596
v 1.616381 6.978189 2.416337
v -0.372750 6.978189 3.062657
v -1.602115 6.978194 1.370596
v -0.372750 6.978189 -0.321465
v 1.616381 6.978189 0.324855
v 0.726799 8.001987 3.062657
v -1.262332 8.001986 2.416337
v -1.262332 8.001986 0.324855
v 0.726799 8.001987 -0.321465
v 1.956164 8.001982 1.370596
v 0.177024 8.634711 1.370596
v -0.146122 6.516408 2.365157
v 1.023051 6.516408 1.985263
v 0.699907 6.888316 2.979834
v 1.869082 6.888318 1.370596
v 1.023051 6.516408 0.755929
v -0.868726 6.516411 1.370596
v -1.191881 6.888317 2.365160
v -0.146122 6.516408 0.376035
v -1.191881 6.888317 0.376032
v 0.699907 6.888316 -0.238642
v 2.068812 7.490088 1.985265
v 2.068812 7.490088 0.755926
v 0.177024 7.490088 3.359736
v 1.346213 7.490088 2.979844
v -1.714763 7.490088 1.985265
v -0.992164 7.490088 2.979844
v -0.992164 7.490088 -0.238652
v -1.714763 7.490088 0.755926
v 1.346213 7.490088 -0.238652
v 0.177024 7.490088 -0.618544
v 1.545930 8.091858 2.365160
v -0.345858 8.091860 2.979834
v -1.515033 8.091858 1.370596
v -0.345858 8.091860 -0.238642
v 1.545930 8.091858 0.376032
v 0.500171 8.463767 2.365157
v 1.222775 8.463764 1.370596
v -0.669002 8.463767 1.985263
v -0.669002 8.463767 0.755929
v 0.500171 8.463767 0.376035
v 0.258123 7.180850 0.000000
v 3.442657 8.659593 2.313673
v -0.958237 8.659592 3.743635
v -3.678171 8.659603 0.000000
v -0.958237 8.659592 -3.743635
v 3.442657 8.659593 -2.313673
v 1.474483 11.052307 3.743635
v -2.926411 11.052305 2.313673
v -2.926411 11.052305 -2.313673
v 1.474483 11.052307 -3.743635
v 4.194417 11.052296 0.000000
v 0.258123 12.531048 0.000000
v -0.456830 7.580364 2.200437
v 2.129932 7.580365 1.359933
v 1.414986 8.449549 3.560392
v 4.001752 8.449553 0.000000
v 2.129932 7.580365 -1.359933
v -2.055569 7.580371 0.000000
v -2.770540 8.449553 2.200444
v -0.456830 7.580364 -2.200437
v -2.770540 8.449553 -2.200444
v 1.414986 8.449549 -3.560392
v 4.443648 9.855949 1.359938
v 4.443648 9.855949 -1.359938
v 0.258123 9.855949 4.400915
v 2.844917 9.855949 3.560414
v -3.927402 9.855949 1.359938
v -2.328671 9.855949 3.560414
v -2.328671 9.855949 -3.560414
v -3.927402 9.855949 -1.359938
v 2.844917 9.855949 -3.560414
v 0.258123 9.855949 -4.400915
v 3.286786 11.262345 2.200444
v -0.898740 11.262349 3.560392
v -3.485506 11.262345 0.000000
v -0.898740 11.262349 -3.560392
v 3.286786 11.262345 -2.200444
v 0.973076 12.131535 2.200437
v 2.571815 12.131527 0.000000
v -1.613686 12.131534 1.359933
v -1.613686 12.131534 -1.359933
v 0.973076 12.131535 -2.200437
v -0.000000 -0.566177 -0.706264
v -0.000000 0.566178 -0.566178
v 0.415132 -0.566177 -0.571380
v 0.332791 0.566178 -0.458047
v 0.671698 -0.566177 -0.218248
v 0.538467 0.566178 -0.174958
v 0.671698 -0.566177 0.218248
v 0.538467 0.566178 0.174958
v 0.415132 -0.566177 0.571380
v 0.332791 0.566178 0.458047
v -0.000000 -0.566177 0.706265
v -0.000000 0.566178 0.566178
v -0.415132 -0.566177 0.571380
v -0.332791 0.566178 0.458047
v -0.671698 -0.566177 0.218248
v -0.538467 0.566178 0.174958
v -0.671698 -0.566177 -0.218248
v -0.538467 0.566178 -0.174958
v -0.415132 -0.566177 -0.571380
v -0.332791 0.566178 -0.458047
v 1.022541 4.550822 -0.604913
v 0.689750 4.550822 -0.713043
v 1.228217 4.550822 -0.321824
v 1.228217 4.550822 0.028093
v 1.022541 4.550822 0.311182
v 0.689750 4.550822 0.419312
v 0.356959 4.550822 0.311182
v 0.151283 4.550822 0.028093
v 0.151283 4.550822 -0.321824
v 0.356959 4.550822 -0.604913
v -0.019025 9.527221 -0.928643
v -0.351816 9.527221 -1.036773
v 0.186651 9.527221 -0.645554
v 0.186651 9.527221 -0.295637
v -0.019025 9.527221 -0.012548
v -0.351816 9.527221 0.095582
v -0.684607 9.527221 -0.012548
v -0.890283 9.527221 -0.295637
v -0.890283 9.527221 -0.645554
v -0.684607 9.527221 -0.928643
v -0.019025 9.527221 -0.928643
v -0.351816 9.527221 -1.036773
v 0.186651 9.527221 -0.645554
v 0.186651 9.527221 -0.295637
v -0.019025 9.527221 -0.012548
v -0.351816 9.527221 0.095582
v -0.684607 9.527221 -0.012548
v -0.890283 9.527221 -0.295637
v -0.890283 9.527221 -0.645554
v -0.684607 9.527221 -0.928643
v -0.019025 9.527221 -0.928643
v -0.351816 9.527221 -1.036773
v 0.186651 9.527221 -0.645554
v 0.186651 9.527221 -0.295637
v -0.019025 9.527221 -0.012548
v -0.351816 9.527221 0.095582
v -0.684607 9.527221 -0.012548
v -0.890283 9.527221 -0.295637
v -0.890283 9.527221 -0.645554
v -0.684607 9.527221 -0.928643
vn 0.0612 -0.9802 0.1884
vn 0.5101 -0.8377 0.1953
vn -0.1602 -0.9802 0.1164
vn -0.1602 -0.9802 -0.1164
vn 0.0612 -0.9802 -0.1884
vn 0.8192 -0.5197 0.2426
vn 0.0224 -0.5197 0.8541
vn -0.8053 -0.5197 0.2852
vn -0.5201 -0.5197 -0.6778
vn 0.4839 -0.5197 -0.7041
vn 0.7901 -0.2149 0.5740
vn -0.3018 -0.2149 0.9288
vn -0.9766 -0.2149 -0.0000
vn -0.3018 -0.2149 -0.9288
vn 0.7901 -0.2149 -0.5740
vn 0.2979 0.8377 0.4578
vn -0.3433 0.8377 0.4248
vn -0.5101 0.8377 -0.1953
vn 0.0281 0.8377 -0.5455
vn 0.5274 0.8377 -0.1419
vn 0.1602 0.9802 -0.1164
vn 0.3256 0.9155 -0.2365
vn 0.2979 0.8377 -0.4578
vn -0.0612 0.9802 -0.1884
vn -0.1244 0.9155 -0.3827
vn -0.3433 0.8377 -0.4248
vn -0.1981 0.9802 -0.0000
vn -0.4024 0.9155 -0.0000
vn -0.5101 0.8377 0.1953
vn -0.0612 0.9802 0.1884
vn -0.1244 0.9155 0.3827
vn 0.0281 0.8377 0.5455
vn 0.1602 0.9802 0.1164
vn 0.3256 0.9155 0.2365
vn 0.5274 0.8377 0.1419
vn 0.8053 0.5197 -0.2852
vn 0.7678 0.3150 -0.5579
vn 0.5201 0.5197 -0.6778
vn -0.0224 0.5197 -0.8541
vn -0.2933 0.3150 -0.9026
vn -0.4839 0.5197 -0.7041
vn -0.8192 0.5197 -0.2426
vn -0.9491 0.3150 -0.0000
vn -0.8192 0.5197 0.2426
vn -0.4839 0.5197 0.7041
vn -0.2933 0.3150 0.9026
vn -0.0224 0.5197 0.8541
vn 0.5201 0.5197 0.6778
vn 0.7678 0.3150 0.5579
vn 0.8053 0.5197 0.2852
vn 0.3018 0.2149 -0.9288
vn 0.2933 -0.3150 -0.9026
vn 0.0224 -0.5197 -0.8541
vn -0.7901 0.2149 -0.5740
vn -0.7678 -0.3150 -0.5579
vn -0.8053 -0.5197 -0.2852
vn -0.7901 0.2149 0.5740
vn -0.7678 -0.3150 0.5579
vn -0.5201 -0.5197 0.6778
vn 0.3018 0.2149 0.9288
vn 0.2933 -0.3150 0.9026
vn 0.4839 -0.5197 0.7041
vn 0.9766 0.2149 -0.0000
vn 0.9491 -0.3150 -0.0000
vn 0.8192 -0.5197 -0.2426
vn 0.3433 -0.8377 -0.4248
vn 0.1244 -0.9155 -0.3827
vn -0.0281 -0.8377 -0.5455
vn -0.2979 -0.8377 -0.4578
vn -0.3256 -0.9155 -0.2365
vn -0.5274 -0.8377 -0.1419
vn -0.5274 -0.8377 0.1419
vn -0.3256 -0.9155 0.2365
vn -0.2979 -0.8377 0.4578
vn 0.5101 -0.8377 -0.1953
vn 0.4024 -0.9155 -0.0000
vn 0.1981 -0.9802 -0.0000
vn -0.0281 -0.8377 0.5455
vn 0.1244 -0.9155 0.3827
vn 0.3433 -0.8377 0.4248
vn 0.0645 -0.9780 0.1985
vn 0.5297 -0.8236 0.2028
vn -0.1689 -0.9780 0.1227
vn -0.1689 -0.9780 -0.1227
vn 0.0645 -0.9780 -0.1985
vn 0.8309 -0.4990 0.2461
vn 0.0227 -0.4990 0.8663
vn -0.8169 -0.4990 0.2893
vn -0.5276 -0.4990 -0.6875
vn 0.4908 -0.4990 -0.7142
vn 0.7920 -0.2039 0.5754
vn -0.3025 -0.2039 0.9311
vn -0.9790 -0.2039 -0.0000
vn -0.3025 -0.2039 -0.9311
vn 0.7920 -0.2039 -0.5754
vn 0.3094 0.8236 0.4754
vn -0.3566 0.8236 0.4412
vn -0.5297 0.8236 -0.2028
vn 0.0291 0.8236 -0.5665
vn 0.5478 0.8236 -0.1473
vn 0.1689 0.9780 -0.1227
vn 0.3407 0.9070 -0.2476
vn 0.3094 0.8236 -0.4754
vn -0.0645 0.9780 -0.1985
vn -0.1301 0.9070 -0.4005
vn -0.3566 0.8236 -0.4412
vn -0.2087 0.9780 -0.0000
vn -0.4212 0.9070 -0.0000
vn -0.5297 0.8236 0.2028
vn -0.0645 0.9780 0.1985
vn -0.1301 0.9070 0.4005
vn 0.0291 0.8236 0.5665
vn 0.1689 0.9780 0.1227
vn 0.3407 0.9070 0.2476
vn 0.5478 0.8236 0.1473
vn 0.8169 0.4990 -0.2893
vn 0.7718 0.2998 -0.5608
vn 0.5276 0.4990 -0.6875
vn -0.0227 0.4990 -0.8663
vn -0.2948 0.2998 -0.9073
vn -0.4908 0.4990 -0.7142
vn -0.8309 0.4990 -0.2461
vn -0.9540 0.2998 -0.0000
vn -0.8309 0.4990 0.2461
vn -0.4908 0.4990 0.7142
vn -0.2948 0.2998 0.9073
vn -0.0227 0.4990 0.8663
vn 0.5276 0.4990 0.6875
vn 0.7718 0.2998 0.5608
vn 0.8169 0.4990 0.2893
vn 0.3025 0.2039 -0.9311
vn 0.2948 -0.2998 -0.9073
vn 0.0227 -0.4990 -0.8663
vn -0.7920 0.2039 -0.5754
vn -0.7718 -0.2998 -0.5608
vn -0.8169 -0.4990 -0.2893
vn -0.7920 0.2039 0.5754
vn -0.7718 -0.2998 0.5608
vn -0.5276 -0.4990 0.6875
vn 0.3025 0.2039 0.9311
vn 0.2948 -0.2998 0.9073
vn 0.4908 -0.4990 0.7142
vn 0.9790 0.2039 -0.0000
vn 0.9540 -0.2998 -0.0000
vn 0.8309 -0.4990 -0.2461
vn 0.3566 -0.8236 -0.4412
vn 0.1301 -0.9070 -0.4005
vn -0.0291 -0.8236 -0.5665
vn -0.3094 -0.8236 -0.4754
vn -0.3407 -0.9070 -0.2476
vn -0.5478 -0.8236 -0.1473
vn -0.5478 -0.8236 0.1473
vn -0.3407 -0.9070 0.2476
vn -0.3094 -0.8236 0.4754
vn 0.5297 -0.8236 -0.2028
vn 0.4212 -0.9070 -0.0000
vn 0.2087 -0.9780 -0.0000
vn -0.0291 -0.8236 0.5665
vn 0.1301 -0.9070 0.4005
vn 0.3566 -0.8236 0.4412
vn 0.3069 0.1169 -0.9445
vn 0.8035 0.1169 -0.5838
vn 0.9931 0.1169 -0.0000
vn 0.8035 0.1169 0.5838
vn 0.3069 0.1169 0.9445
vn -0.3069 0.1169 0.9445
vn -0.8035 0.1169 0.5838
vn -0.9931 0.1169 -0.0000
vn 0.7986 -0.1596 -0.5802
vn -0.8035 0.1169 -0.5838
vn -0.3069 0.1169 -0.9445
vn -0.0000 -1.0000 -0.0000
vn -0.3066 -0.1255 -0.9435
vn -0.3090 0.0184 -0.9509
vn -0.8034 0.1176 -0.5837
vn -0.9853 0.1706 -0.0000
vn -0.7986 0.1596 0.5802
vn -0.3078 0.0882 0.9473
vn 0.3090 -0.0184 0.9509
vn 0.8034 -0.1176 0.5837
vn 0.3078 -0.0882 -0.9474
vn 0.9853 -0.1706 -0.0000
vn -0.0000 1.0000 -0.0000
vn -0.8022 -0.1300 0.5828
vn 0.7921 0.2032 0.5755
vn 0.3090 0.0028 -0.9511
vn -0.9788 -0.2049 -0.0000
vn 0.3066 0.1255 0.9435
vn 0.8022 0.1300 -0.5828
vn -0.7921 -0.2032 -0.5755
vn -0.3090 -0.0028 0.9511
vn 0.9788 0.2049 -0.0000
vt 0.181819 0.000000
vt 0.909091 0.000000
vt 0.727273 0.000000
vt 0.545455 0.000000
vt 0.363637 0.000000
vt 0.272728 0.157461
vt 1.000000 0.157461
vt 0.090910 0.157461
vt 0.818182 0.157461
vt 0.636364 0.157461
vt 0.454546 0.157461
vt 0.181819 0.314921
vt 0.000000 0.314921
vt 0.909091 0.314921
vt 0.727273 0.314921
vt 0.545455 0.314921
vt 0.363637 0.314921
vt 0.454546 0.472382
vt 0.636364 0.472382
vt 0.818182 0.472382
vt 0.090910 0.472382
vt 0.272728 0.472382
vt 0.954545 0.078731
vt 0.136365 0.078731
vt 0.318182 0.078731
vt 0.227273 0.078731
vt 0.181819 0.157461
vt 0.363637 0.157461
vt 0.500000 0.078731
vt 0.409092 0.078731
vt 0.772727 0.078731
vt 0.863636 0.078731
vt 0.909091 0.157461
vt 0.590909 0.078731
vt 0.681818 0.078731
vt 0.727273 0.157461
vt 0.545455 0.157461
vt 0.318182 0.236191
vt 0.409092 0.236191
vt 0.136365 0.236191
vt 0.227273 0.236191
vt 0.863636 0.236191
vt 0.045455 0.236191
vt 0.954545 0.236191
vt 0.681818 0.236191
vt 0.772727 0.236191
vt 0.500000 0.236191
vt 0.590909 0.236191
vt 0.272728 0.314921
vt 0.090910 0.314921
vt 0.818182 0.314921
vt 0.636364 0.314921
vt 0.454546 0.314921
vt 0.136365 0.393651
vt 0.227273 0.393651
vt 0.409092 0.393651
vt 0.318182 0.393651
vt 0.863636 0.393651
vt 0.045455 0.393651
vt 0.681818 0.393651
vt 0.772727 0.393651
vt 0.500000 0.393651
vt 0.590909 0.393651
vt 0.181819 0.000000
vt 0.909091 0.000000
vt 0.727273 0.000000
vt 0.545455 0.000000
vt 0.363637 0.000000
vt 0.272728 0.157461
vt 1.000000 0.157461
vt 0.090910 0.157461
vt 0.818182 0.157461
vt 0.636364 0.157461
vt 0.454546 0.157461
vt 0.181819 0.314921
vt 0.000000 0.314921
vt 0.909091 0.314921
vt 0.727273 0.314921
vt 0.545455 0.314921
vt 0.363637 0.314921
vt 0.454546 0.472382
vt 0.636364 0.472382
vt 0.818182 0.472382
vt 0.090910 0.472382
vt 0.272728 0.472382
vt 0.954545 0.078731
vt 0.136365 0.078731
vt 0.318182 0.078731
vt 0.227273 0.078731
vt 0.181819 0.157461
vt 0.363637 0.157461
vt 0.500000 0.078731
vt 0.409092 0.078731
vt 0.772727 0.078731
vt 0.863636 0.078731
vt 0.909091 0.157461
vt 0.590909 0.078731
vt 0.681818 0.078731
vt 0.727273 0.157461
vt 0.545455 0.157461
vt 0.318182 0.236191
vt 0.409092 0.236191
vt 0.136365 0.236191
vt 0.227273 0.236191
vt 0.863636 0.236191
vt 0.045455 0.236191
vt 0.954545 0.236191
vt 0.681818 0.236191
vt 0.772727 0.236191
vt 0.500000 0.236191
vt 0.590909 0.236191
vt 0.272728 0.314921
vt 0.090910 0.314921
vt 0.818182 0.314921
vt 0.636364 0.314921
vt 0.454546 0.314921
vt 0.136365 0.393651
vt 0.227273 0.393651
vt 0.409092 0.393651
vt 0.318182 0.393651
vt 0.863636 0.393651
vt 0.045455 0.393651
vt 0.681818 0.393651
vt 0.772727 0.393651
vt 0.500000 0.393651
vt 0.590909 0.393651
vt 1.000000 0.500000
vt -0.000000 0.500000
vt 0.750000 0.490000
vt -0.000000 1.000000
vt 1.000000 1.000000
vt 0.900000 0.500000
vt 0.891068 0.444164
vt 0.900000 1.000000
vt 0.800000 0.500000
vt 0.978254 0.324164
vt 0.800000 1.000000
vt 0.700000 0.500000
vt 0.978254 0.175836
vt 0.700000 1.000000
vt 0.600000 0.500000
vt 0.891068 0.055836
vt 0.600000 1.000000
vt 0.500000 0.500000
vt 0.750000 0.010000
vt 0.500000 1.000000
vt 0.400000 0.500000
vt 0.608932 0.055836
vt 0.400000 1.000000
vt 0.300000 0.500000
vt 0.521746 0.175836
vt 0.300000 1.000000
vt 0.200000 0.500000
vt 0.521746 0.324164
vt 0.200000 1.000000
vt 0.100000 0.500000
vt 0.608932 0.444164
vt 0.100000 1.000000
vt 0.900000 1.000000
vt -0.000000 1.000000
vt 1.000000 1.000000
vt 0.800000 1.000000
vt 0.700000 1.000000
vt 0.600000 1.000000
vt 0.500000 1.000000
vt 0.400000 1.000000
vt 0.300000 1.000000
vt 0.200000 1.000000
vt 0.100000 1.000000
vt 0.900000 1.000000
vt 1.000000 1.000000
vt -0.000000 1.000000
vt 0.800000 1.000000
vt 0.700000 1.000000
vt 0.600000 1.000000
vt 0.500000 1.000000
vt 0.400000 1.000000
vt 0.300000 1.000000
vt 0.200000 1.000000
vt 0.100000 1.000000
vt 0.900000 1.000000
vt -0.000000 1.000000
vt 1.000000 1.000000
vt 0.800000 1.000000
vt 0.700000 1.000000
vt 0.600000 1.000000
vt 0.500000 1.000000
vt 0.400000 1.000000
vt 0.300000 1.000000
vt 0.200000 1.000000
vt 0.100000 1.000000
vt 0.391068 0.444164
vt 0.900000 1.000000
vt 0.250000 0.490000
vt -0.000000 1.000000
vt 1.000000 1.000000
vt 0.478254 0.324164
vt 0.800000 1.000000
vt 0.478254 0.175836
vt 0.700000 1.000000
vt 0.391068 0.055836
vt 0.600000 1.000000
vt 0.250000 0.010000
vt 0.500000 1.000000
vt 0.108932 0.055836
vt 0.400000 1.000000
vt 0.021746 0.175836
vt 0.300000 1.000000
vt 0.021746 0.324164
vt 0.200000 1.000000
vt 0.108932 0.444164
vt 0.100000 1.000000
s 0
usemtl Material.001
f 1/1/1 14/26/1 13/24/1
f 2/6/2 14/25/2 16/28/2
f 1/2/3 13/23/3 18/32/3
f 1/3/4 18/31/4 20/35/4
f 1/4/5 20/34/5 17/29/5
f 2/6/6 16/28/6 23/38/6
f 3/8/7 15/27/7 25/40/7
f 4/9/8 19/33/8 27/42/8
f 5/10/9 21/36/9 29/45/9
f 6/11/10 22/37/10 31/47/10
f 2/6/11 23/38/11 26/41/11
f 3/8/12 25/40/12 28/43/12
f 4/9/13 27/42/13 30/46/13
f 5/10/14 29/45/14 32/48/14
f 6/11/15 31/47/15 24/39/15
f 7/12/16 33/49/16 38/55/16
f 8/13/17 34/50/17 40/59/17
f 9/15/18 35/51/18 41/61/18
f 10/16/19 36/52/19 42/63/19
f 11/17/20 37/53/20 39/56/20
f 39/56/21 42/62/21 12/18/21
f 39/56/22 37/53/22 42/62/22
f 37/53/23 10/16/23 42/62/23
f 42/63/24 41/60/24 12/19/24
f 42/63/25 36/52/25 41/60/25
f 36/52/26 9/15/26 41/60/26
f 41/61/27 40/58/27 12/20/27
f 41/61/28 35/51/28 40/58/28
f 35/51/29 8/14/29 40/58/29
f 40/59/30 38/54/30 12/21/30
f 40/59/31 34/50/31 38/54/31
f 34/50/32 7/12/32 38/54/32
f 38/55/33 39/57/33 12/22/33
f 38/55/34 33/49/34 39/57/34
f 33/49/35 11/17/35 39/57/35
f 24/39/36 37/53/36 11/17/36
f 24/39/37 31/47/37 37/53/37
f 31/47/38 10/16/38 37/53/38
f 32/48/39 36/52/39 10/16/39
f 32/48/40 29/45/40 36/52/40
f 29/45/41 9/15/41 36/52/41
f 30/46/42 35/51/42 9/15/42
f 30/46/43 27/42/43 35/51/43
f 27/42/44 8/14/44 35/51/44
f 28/43/45 34/50/45 8/13/45
f 28/43/46 25/40/46 34/50/46
f 25/40/47 7/12/47 34/50/47
f 26/41/48 33/49/48 7/12/48
f 26/41/49 23/38/49 33/49/49
f 23/38/50 11/17/50 33/49/50
f 31/47/51 32/48/51 10/16/51
f 31/47/52 22/37/52 32/48/52
f 22/37/53 5/10/53 32/48/53
f 29/45/54 30/46/54 9/15/54
f 29/45/55 21/36/55 30/46/55
f 21/36/56 4/9/56 30/46/56
f 27/42/57 28/44/57 8/14/57
f 27/42/58 19/33/58 28/44/58
f 19/33/59 3/7/59 28/44/59
f 25/40/60 26/41/60 7/12/60
f 25/40/61 15/27/61 26/41/61
f 15/27/62 2/6/62 26/41/62
f 23/38/63 24/39/63 11/17/63
f 23/38/64 16/28/64 24/39/64
f 16/28/65 6/11/65 24/39/65
f 17/29/66 22/37/66 6/11/66
f 17/29/67 20/34/67 22/37/67
f 20/34/68 5/10/68 22/37/68
f 20/35/69 21/36/69 5/10/69
f 20/35/70 18/31/70 21/36/70
f 18/31/71 4/9/71 21/36/71
f 18/32/72 19/33/72 4/9/72
f 18/32/73 13/23/73 19/33/73
f 13/23/74 3/7/74 19/33/74
f 16/28/75 17/30/75 6/11/75
f 16/28/76 14/25/76 17/30/76
f 14/25/77 1/5/77 17/30/77
f 13/24/78 15/27/78 3/8/78
f 13/24/79 14/26/79 15/27/79
f 14/26/80 2/6/80 15/27/80
f 43/64/81 56/89/81 55/87/81
f 44/69/82 56/88/82 58/91/82
f 43/65/83 55/86/83 60/95/83
f 43/66/84 60/94/84 62/98/84
f 43/67/85 62/97/85 59/92/85
f 44/69/86 58/91/86 65/101/86
f 45/71/87 57/90/87 67/103/87
f 46/72/88 61/96/88 69/105/88
f 47/73/89 63/99/89 71/108/89
f 48/74/90 64/100/90 73/110/90
f 44/69/91 65/101/91 68/104/91
f 45/71/92 67/103/92 70/106/92
f 46/72/93 69/105/93 72/109/93
f 47/73/94 71/108/94 74/111/94
f 48/74/95 73/110/95 66/102/95
f 49/75/96 75/112/96 80/118/96
f 50/76/97 76/113/97 82/122/97
f 51/78/98 77/114/98 83/124/98
f 52/79/99 78/115/99 84/126/99
f 53/80/100 79/116/100 81/119/100
f 81/119/101 84/125/101 54/81/101
f 81/119/102 79/116/102 84/125/102
f 79/116/103 52/79/103 84/125/103
f 84/126/104 83/123/104 54/82/104
f 84/126/105 78/115/105 83/123/105
f 78/115/106 51/78/106 83/123/106
f 83/124/107 82/121/107 54/83/107
f 83/124/108 77/114/108 82/121/108
f 77/114/109 50/77/109 82/121/109
f 82/122/110 80/117/110 54/84/110
f 82/122/111 76/113/111 80/117/111
f 76/113/112 49/75/112 80/117/112
f 80/118/113 81/120/113 54/85/113
f 80/118/114 75/112/114 81/120/114
f 75/112/115 53/80/115 81/120/115
f 66/102/116 79/116/116 53/80/116
f 66/102/117 73/110/117 79/116/117
f 73/110/118 52/79/118 79/116/118
f 74/111/119 78/115/119 52/79/119
f 74/111/120 71/108/120 78/115/120
f 71/108/121 51/78/121 78/115/121
f 72/109/122 77/114/122 51/78/122
f 72/109/123 69/105/123 77/114/123
f 69/105/124 50/77/124 77/114/124
f 70/106/125 76/113/125 50/76/125
f 70/106/126 67/103/126 76/113/126
f 67/103/127 49/75/127 76/113/127
f 68/104/128 75/112/128 49/75/128
f 68/104/129 65/101/129 75/112/129
f 65/101/130 53/80/130 75/112/130
f 73/110/131 74/111/131 52/79/131
f 73/110/132 64/100/132 74/111/132
f 64/100/133 47/73/133 74/111/133
f 71/108/134 72/109/134 51/78/134
f 71/108/135 63/99/135 72/109/135
f 63/99/136 46/72/136 72/109/136
f 69/105/137 70/107/137 50/77/137
f 69/105/138 61/96/138 70/107/138
f 61/96/139 45/70/139 70/107/139
f 67/103/140 68/104/140 49/75/140
f 67/103/141 57/90/141 68/104/141
f 57/90/142 44/69/142 68/104/142
f 65/101/143 66/102/143 53/80/143
f 65/101/144 58/91/144 66/102/144
f 58/91/145 48/74/145 66/102/145
f 59/92/146 64/100/146 48/74/146
f 59/92/147 62/97/147 64/100/147
f 62/97/148 47/73/148 64/100/148
f 62/98/149 63/99/149 47/73/149
f 62/98/150 60/94/150 63/99/150
f 60/94/151 46/72/151 63/99/151
f 60/95/152 61/96/152 46/72/152
f 60/95/153 55/86/153 61/96/153
f 55/86/154 45/70/154 61/96/154
f 58/91/155 59/93/155 48/74/155
f 58/91/156 56/88/156 59/93/156
f 56/88/157 43/68/157 59/93/157
f 55/87/158 57/90/158 45/71/158
f 55/87/159 56/89/159 57/90/159
f 56/89/160 44/69/160 57/90/160
usemtl Material.002
f 85/127/161 86/131/161 88/134/161 87/132/161
f 87/132/162 88/134/162 90/137/162 89/135/162
f 89/135/163 90/137/163 92/140/163 91/138/163
f 91/138/164 92/140/164 94/143/164 93/141/164
f 93/141/165 94/143/165 96/146/165 95/144/165
f 95/144/166 96/146/166 98/149/166 97/147/166
f 97/147/167 98/149/167 100/152/167 99/150/167
f 99/150/168 100/152/168 102/155/168 101/153/168
f 90/137/169 88/134/169 105/159/169 107/162/169
f 101/153/170 102/155/170 104/158/170 103/156/170
f 103/156/171 104/158/171 86/130/171 85/128/171
f 85/129/172 87/133/172 89/136/172 91/139/172 93/142/172 95/145/172 97/148/172 99/151/172 101/154/172 103/157/172
f 106/160/173 114/169/173 124/180/173 116/172/173
f 86/130/174 104/158/174 114/169/174 106/160/174
f 104/158/175 102/155/175 113/168/175 114/169/175
f 102/155/176 100/152/176 112/167/176 113/168/176
f 100/152/177 98/149/177 111/166/177 112/167/177
f 98/149/178 96/146/178 110/165/178 111/166/178
f 96/146/179 94/143/179 109/164/179 110/165/179
f 94/143/180 92/140/180 108/163/180 109/164/180
f 88/134/181 86/131/181 106/161/181 105/159/181
f 92/140/182 90/137/182 107/162/182 108/163/182
f 122/178/183 121/177/183 131/188/183 132/189/183
f 112/167/184 111/166/184 121/177/184 122/178/184
f 109/164/185 108/163/185 118/174/185 119/175/185
f 105/159/186 106/161/186 116/171/186 115/170/186
f 113/168/187 112/167/187 122/178/187 123/179/187
f 110/165/188 109/164/188 119/175/188 120/176/188
f 107/162/189 105/159/189 115/170/189 117/173/189
f 114/169/190 113/168/190 123/179/190 124/180/190
f 111/166/191 110/165/191 120/176/191 121/177/191
f 108/163/192 107/162/192 117/173/192 118/174/192
f 128/185/183 127/184/183 137/198/183 138/200/183
f 119/175/183 118/174/183 128/185/183 129/186/183
f 115/170/183 116/171/183 126/183/183 125/181/183
f 123/179/183 122/178/183 132/189/183 133/190/183
f 120/176/183 119/175/183 129/186/183 130/187/183
f 117/173/183 115/170/183 125/181/183 127/184/183
f 124/180/183 123/179/183 133/190/183 134/191/183
f 121/177/183 120/176/183 130/187/183 131/188/183
f 118/174/183 117/173/183 127/184/183 128/185/183
f 116/172/183 124/180/183 134/191/183 126/182/183
f 135/192/183 136/194/183 144/211/183 143/209/183 142/207/183 141/205/183 140/203/183 139/201/183 138/199/183 137/197/183
f 126/182/183 134/191/183 144/212/183 136/195/183
f 132/189/183 131/188/183 141/206/183 142/208/183
f 129/186/183 128/185/183 138/200/183 139/202/183
f 125/181/183 126/183/183 136/196/183 135/193/183
f 133/190/183 132/189/183 142/208/183 143/210/183
f 130/187/183 129/186/183 139/202/183 140/204/183
f 127/184/183 125/181/183 135/193/183 137/198/183
f 134/191/183 133/190/183 143/210/183 144/212/183
f 131/188/183 130/187/183 140/204/183 141/206/183
